<?xml version="1.0" encoding="UTF-8" standalone="no"?>
<svg width="21px" height="19px" viewBox="0 0 21 19" version="1.1" xmlns="http://www.w3.org/2000/svg" xmlns:xlink="http://www.w3.org/1999/xlink" xmlns:sketch="http://www.bohemiancoding.com/sketch/ns">
    <!-- Generator: Sketch 3.0.4 (8053) - http://www.bohemiancoding.com/sketch -->
    <title>search</title>
    <desc>Created with Sketch.</desc>
    <defs></defs>
    <g id="Page-1" stroke="none" stroke-width="1" fill="none" fill-rule="evenodd" sketch:type="MSPage">
        <g id="mobile" sketch:type="MSArtboardGroup" transform="translate(-269.000000, -82.000000)" fill="#FFFFFF">
            <g id="search" sketch:type="MSLayerGroup" transform="translate(9.000000, 77.000000)">
                <g id="search-btn" transform="translate(242.000000, 0.000000)" sketch:type="MSShapeGroup">
                    <path d="M25.6154172,5 C21.6032715,5 18.3410596,8.35571429 18.3410596,12.4828571 C18.3410596,16.61 21.6032715,19.9528571 25.6154172,19.9528571 C27.3527638,19.9528571 28.9401236,19.3357143 30.1900132,18.2942857 C30.2400088,18.3971429 30.2900044,18.5 30.3774967,18.59 L34.914596,23.2442857 C35.1520751,23.5014286 35.4895453,23.63 35.8145166,23.63 C36.1394879,23.63 36.4644592,23.5014286 36.7144371,23.2442857 C37.2143929,22.73 37.2143929,21.8942857 36.7144371,21.38 L32.1898366,16.7257143 C32.0648477,16.5971429 31.9273598,16.5071429 31.7648742,16.4428571 C32.4773113,15.2857143 32.8772759,13.9357143 32.8772759,12.4828571 C32.8772759,8.35571429 29.6275629,5 25.6154172,5 L25.6154172,5 Z M30.6399735,12.4828571 C30.6399735,13.4471429 30.3774967,14.3857143 29.8775408,15.2214286 L29.4150817,15.9671429 L28.777638,16.4942857 C27.8652185,17.2528571 26.7778146,17.6514286 25.6154172,17.6514286 C22.8406623,17.6514286 20.578362,15.3371429 20.578362,12.4828571 C20.578362,9.62857143 22.8406623,7.30142857 25.6154172,7.30142857 C28.3901722,7.30142857 30.6399735,9.62857143 30.6399735,12.4828571 Z" id="search"></path>
                </g>
            </g>
        </g>
    </g>
</svg>